<?xml version="1.0" standalone="no"?>
<!DOCTYPE svg PUBLIC "-//W3C//DTD SVG 1.1//EN" "http://www.w3.org/Graphics/SVG/1.1/DTD/svg11.dtd" >
<svg xmlns="http://www.w3.org/2000/svg" xmlns:xlink="http://www.w3.org/1999/xlink" version="1.1">
<metadata>
Created by FontForge 20201107 at Fri Jun 14 11:06:05 2024
 By 
URW Software, Copyright 1994 by URW
</metadata>
<defs>
<font id="HandelGotD-Bold" horiz-adv-x="1024" >
  <font-face 
    font-family="Handel Gothic D"
    font-weight="700"
    font-stretch="normal"
    units-per-em="2048"
    panose-1="0 0 0 0 0 0 0 0 0 0"
    ascent="1638"
    descent="-410"
    x-height="997"
    cap-height="1366"
    bbox="-324 -410 2535 1839"
    underline-thickness="223"
    underline-position="-300"
    unicode-range="U+0020-FB02"
  />
<missing-glyph horiz-adv-x="512" 
 />
    <glyph glyph-name=".notdef" horiz-adv-x="512" 
 />
    <glyph glyph-name=".null" horiz-adv-x="0" 
 />
    <glyph glyph-name="nonmarkingreturn" horiz-adv-x="682" 
 />
    <glyph glyph-name="space" unicode=" " horiz-adv-x="512" 
 />
    <glyph glyph-name="exclam" unicode="!" horiz-adv-x="561" 
d="M426 1366v-1032h-291v1032h291zM426 231v-231h-291v231h291z" />
    <glyph glyph-name="quotedbl" unicode="&#x22;" horiz-adv-x="837" 
d="M315 817h-186v549h186v-549zM711 817h-187v549h187v-549z" />
    <glyph glyph-name="numbersign" unicode="#" horiz-adv-x="1337" 
d="M401 1296h230l-56 -344h269l55 344h231l-55 -344h225l-20 -137h-227l-37 -237h225l-20 -138h-228l-59 -372h-229l59 372h-268l-60 -372h-231l59 372h-225l22 138h226l37 237h-226l21 137h227zM823 815h-268l-37 -237h266z" />
    <glyph glyph-name="dollar" unicode="$" horiz-adv-x="1425" 
d="M631 244v329q-168 0 -224 6t-122 31q-94 38 -153.5 135.5t-59.5 215.5q0 149 86 264.5t211 132.5q78 8 262 8v197h168v-197h479v-244h-479v-305q169 0 236.5 -9.5t133.5 -43.5q88 -44 136.5 -139t48.5 -222q0 -123 -56 -223.5t-145 -140.5q-58 -26 -118.5 -32.5
t-235.5 -6.5v-201h-168v201h-494v244h494zM799 573v-329q87 3 119 12q49 10 80.5 51.5t31.5 95.5q0 46 -24 86t-64 60q-41 21 -143 24zM631 817v305q-65 0 -123 -8q-115 -15 -115 -143q0 -63 36.5 -102t105.5 -48q20 -4 96 -4z" />
    <glyph glyph-name="percent" unicode="%" horiz-adv-x="1808" 
d="M444 1372q363 0 363 -346q0 -344 -346 -344q-192 0 -286.5 85.5t-94.5 258.5q0 178 88 262t276 84zM436 1225q-75 0 -115 -49.5t-40 -141.5q0 -107 40.5 -156t129.5 -49q80 0 117.5 49.5t37.5 153.5q0 193 -170 193zM1087 1366h175l-551 -1366h-174zM1364 682
q362 0 362 -346q0 -344 -348 -344q-192 0 -286.5 85.5t-94.5 258.5q0 178 89 262t278 84zM1354 535q-76 0 -116 -49.5t-40 -143.5q0 -106 41 -154.5t131 -48.5q80 0 118 49.5t38 153.5q0 193 -172 193z" />
    <glyph glyph-name="ampersand" unicode="&#x26;" horiz-adv-x="1538" 
d="M1509 805v-244h-190q-67 -212 -159 -335t-225.5 -178.5t-332.5 -55.5q-122 0 -198.5 15.5t-139.5 53.5q-84 51 -129 138t-45 198q0 102 46 178t126 105q-101 64 -145.5 140.5t-44.5 183.5q0 103 49.5 191.5t130.5 129.5q84 41 280 41h457v-244h-391q-98 0 -145 -37.5
t-47 -115.5q0 -72 45 -118t116 -46h99v-244h-35q-84 0 -113.5 -4.5t-52.5 -21.5q-55 -40 -55 -125q0 -88 54.5 -130t168.5 -42q161 0 250 75.5t129 247.5h-197v244h694z" />
    <glyph glyph-name="quotesingle" unicode="'" horiz-adv-x="442" 
d="M315 817h-186v549h186v-549z" />
    <glyph glyph-name="parenleft" unicode="(" horiz-adv-x="870" 
d="M803 1561v-228q-224 -12 -321 -168.5t-97 -507.5q0 -349 129 -493q49 -57 114.5 -84.5t174.5 -38.5v-229q-188 14 -304 57.5t-204 134.5q-205 217 -205 670q0 497 256 729q91 84 184.5 116.5t272.5 41.5z" />
    <glyph glyph-name="parenright" unicode=")" horiz-adv-x="870" 
d="M68 1333v228q112 -6 170.5 -16t111.5 -32q207 -83 318.5 -300t111.5 -539q0 -506 -252 -711q-83 -70 -188 -104.5t-272 -46.5v229q109 10 173.5 38t114.5 85q129 144 129 493q0 352 -96.5 508t-320.5 168z" />
    <glyph glyph-name="asterisk" unicode="*" horiz-adv-x="751" 
d="M268 778l-131 94l111 152l-187 55l58 152l182 -60l-6 195h162l-6 -195l180 60l59 -152l-186 -55l110 -152l-131 -94l-108 154z" />
    <glyph glyph-name="plus" unicode="+" horiz-adv-x="1144" 
d="M76 809h383v365h231v-365h381v-223h-381v-367h-231v367h-383v223z" />
    <glyph glyph-name="comma" unicode="," horiz-adv-x="479" 
d="M373 266v-237l-158 -310h-125l125 281h-90v266h248z" />
    <glyph glyph-name="hyphen" unicode="-" horiz-adv-x="477" 
d="M477 651v-245h-477v245h477z" />
    <glyph glyph-name="period" unicode="." horiz-adv-x="458" 
d="M352 266v-266h-248v266h248z" />
    <glyph glyph-name="slash" unicode="/" horiz-adv-x="1091" 
d="M172 -188h-256l1006 1740h256z" />
    <glyph glyph-name="zero" unicode="0" horiz-adv-x="1484" 
d="M743 1374q338 0 505 -171.5t167 -518.5q0 -350 -158.5 -521t-482.5 -171q-356 0 -531 170.5t-175 517.5q0 358 163 526t512 168zM727 1145q-95 0 -171 -42t-114 -116q-23 -46 -39 -130t-16 -163q0 -93 19.5 -188t48.5 -146q81 -139 303 -139q109 0 177 40t109 128
q22 46 37 133.5t15 171.5q0 107 -26.5 200t-70.5 146q-41 49 -114 77t-158 28z" />
    <glyph glyph-name="one" unicode="1" horiz-adv-x="569" 
d="M430 0h-291v1366h291v-1366z" />
    <glyph glyph-name="two" unicode="2" horiz-adv-x="1353" 
d="M362 242h891v-242h-1181v362q0 238 116 351q55 55 118.5 72.5t205.5 17.5h223q48 0 95.5 9.5t70.5 21.5q68 43 68 122q0 44 -20 82.5t-52 57.5q-54 28 -162 28h-641v242h703q140 0 228.5 -22.5t143.5 -71.5q56 -50 87.5 -130.5t31.5 -172.5q0 -124 -44 -217t-122 -136
q-101 -55 -305 -55h-192q-106 0 -157.5 -14t-74.5 -49q-12 -19 -21.5 -59.5t-9.5 -76.5v-120z" />
    <glyph glyph-name="three" unicode="3" horiz-adv-x="1267" 
d="M68 0v242h585q118 0 167.5 36.5t49.5 124.5q0 105 -71 144q-39 22 -146 22h-456v242h456q75 0 111 7.5t61 27.5q43 37 43 119q0 92 -65 135q-23 15 -52 19.5t-98 4.5h-585v242h637q139 -1 179 -6t87 -25q97 -40 157 -136t60 -210q0 -192 -182 -297q184 -118 184 -330
q0 -95 -38.5 -169.5t-109.5 -120.5q-68 -43 -143.5 -57.5t-230.5 -14.5h-600z" />
    <glyph glyph-name="four" unicode="4" horiz-adv-x="1445" 
d="M51 238v288l770 840h383v-887h180v-241h-180v-238h-291v238h-862zM377 479h536v584z" />
    <glyph glyph-name="five" unicode="5" horiz-adv-x="1384" 
d="M1241 1366v-242h-831v-313h432q131 0 207 -18.5t131 -61.5q135 -110 135 -313q0 -129 -59.5 -224t-170.5 -145q-118 -49 -368 -49h-598v242h598q125 0 190 20q40 14 64 52t24 89q0 56 -26.5 99t-69.5 55q-26 7 -49 9t-133 3h-598v797h1122z" />
    <glyph glyph-name="six" unicode="6" horiz-adv-x="1415" 
d="M393 805h461q161 0 236 -16.5t129 -63.5q124 -106 124 -301q0 -240 -213 -363q-123 -69 -374 -69q-185 0 -297.5 32.5t-194.5 108.5q-92 88 -144 234.5t-52 318.5q0 182 61 339t162 235q79 60 182.5 83t292.5 23h504v-242h-416q-154 2 -236 -11t-124 -46
q-47 -35 -74 -104.5t-27 -157.5zM803 563h-410q3 -152 60 -237q38 -59 106 -82t203 -23q140 0 201 40.5t61 133.5q0 91 -68 140q-24 17 -55.5 22.5t-97.5 5.5z" />
    <glyph glyph-name="seven" unicode="7" horiz-adv-x="1294" 
d="M1247 1366v-242l-829 -1124h-357l859 1124h-865v242h1192z" />
    <glyph glyph-name="eight" unicode="8" horiz-adv-x="1447" 
d="M283 682q-114 69 -159.5 142.5t-45.5 189.5q0 251 231 329q51 17 133.5 24t245.5 7q239 0 327.5 -7.5t147.5 -33.5q94 -41 149.5 -132t55.5 -206q0 -113 -51 -189.5t-158 -123.5q55 -31 82.5 -52t48.5 -48q33 -40 52.5 -98.5t19.5 -116.5q0 -74 -33 -149.5t-90 -129.5
q-58 -54 -163 -75t-316 -21q-178 0 -273 6q-104 3 -174.5 28.5t-124.5 79.5q-110 110 -110 256q0 56 18.5 113t50.5 100q41 52 136 107zM719 1145q-183 0 -232 -21q-90 -34 -90 -155q0 -134 107 -158q58 -10 219 -10q205 0 246 20q80 35 80 148q0 137 -121 164
q-50 12 -209 12zM721 575q-184 0 -236 -22q-86 -38 -86 -158q0 -137 107 -164q50 -10 215 -10q201 0 244 21q77 38 77 151q0 140 -116 170q-50 12 -205 12z" />
    <glyph glyph-name="nine" unicode="9" horiz-adv-x="1415" 
d="M1022 561h-461q-161 0 -235.5 16.5t-128.5 63.5q-125 107 -125 301q0 240 213 363q123 69 374 69q185 0 297.5 -32.5t194.5 -108.5q92 -88 144.5 -234.5t52.5 -318.5q0 -181 -61.5 -338.5t-162.5 -235.5q-79 -60 -182.5 -83t-292.5 -23h-504v242h416q155 -2 237 11
t124 46q47 35 73.5 104.5t26.5 157.5zM612 803h410q-3 154 -59 237q-38 58 -105.5 81.5t-195.5 23.5q-154 0 -205 -37q-30 -20 -48 -58t-18 -81q0 -93 70 -138q23 -17 54 -22.5t97 -5.5z" />
    <glyph glyph-name="colon" unicode=":" horiz-adv-x="458" 
d="M352 266v-266h-248v266h248zM352 745v-266h-248v266h248z" />
    <glyph glyph-name="semicolon" unicode=";" horiz-adv-x="479" 
d="M373 745v-266h-248v266h248zM373 266v-237l-158 -310h-125l125 281h-90v266h248z" />
    <glyph glyph-name="less" unicode="&#x3c;" 
d="M954 1292v-315l-553 -287l553 -289v-311l-886 469v264z" />
    <glyph glyph-name="equal" unicode="=" horiz-adv-x="1144" 
d="M76 1006h995v-224h-995v224zM76 612h995v-223h-995v223z" />
    <glyph glyph-name="greater" unicode="&#x3e;" 
d="M68 90v313l550 289l-550 287v313l886 -469v-266z" />
    <glyph glyph-name="question" unicode="?" horiz-adv-x="1394" 
d="M121 1366h715q156 0 221 -13.5t127 -58.5q143 -105 143 -336q0 -111 -38.5 -196.5t-110.5 -132.5q-90 -64 -299 -64h-181q-151 0 -198 -35q-47 -38 -47 -127v-69h-291v98q0 208 110 299q50 40 129.5 58t208.5 18h166q132 0 178 31q54 39 54 133q0 114 -88 141
q-27 9 -53.5 10.5t-131.5 1.5h-614v242zM453 231v-231h-291v231h291z" />
    <glyph glyph-name="at" unicode="@" horiz-adv-x="1624" 
d="M1204 150v-150h-463q-177 0 -287.5 31.5t-185.5 103.5q-92 89 -146 237t-54 310q0 186 67.5 346t181.5 242q164 116 514 116q360 0 525 -126q92 -69 145 -185.5t53 -247.5q0 -112 -41 -218.5t-110 -178.5q-42 -42 -87.5 -68t-119.5 -51h-436q-121 0 -163.5 8.5
t-86.5 42.5q-94 70 -94 218q0 127 43.5 231t120.5 160q112 82 305 82h305l-84 -602h86q68 51 108.5 151.5t40.5 218.5q0 116 -42 208t-117 138q-117 70 -351 70q-301 0 -413 -127q-57 -66 -92 -183.5t-35 -244.5q0 -148 45.5 -273.5t120.5 -185.5q54 -41 131 -57t217 -16
h399zM938 887h-33q-75 0 -120.5 -16.5t-73.5 -53.5q-25 -34 -40.5 -86.5t-15.5 -107.5q0 -76 44 -111t139 -35h41z" />
    <glyph glyph-name="A" unicode="A" horiz-adv-x="1480" 
d="M8 0l565 1366h334l566 -1366h-340l-132 317h-520l-131 -317h-342zM741 1038l-194 -477h389z" />
    <glyph glyph-name="B" unicode="B" horiz-adv-x="1431" 
d="M139 0v1366h772q191 0 275 -47q76 -41 123 -127t47 -184q0 -105 -56.5 -197t-142.5 -129q199 -90 199 -320q0 -121 -52.5 -207.5t-148.5 -123.5q-82 -31 -260 -31h-756zM430 805h395q62 0 91 6.5t55 26.5q63 50 63 135q0 81 -59 121q-26 17 -55 22.5t-89 5.5h-401v-317z
M430 244h395q64 0 93 6t55 26q63 50 63 136q0 80 -59 120q-26 17 -56.5 23t-89.5 6h-401v-317z" />
    <glyph glyph-name="C" unicode="C" horiz-adv-x="1243" 
d="M1176 244v-244h-476q-177 0 -276 29.5t-178 105.5q-180 174 -180 545q0 231 78.5 394.5t222.5 230.5q59 28 152.5 44.5t193.5 16.5h463v-244h-428q-203 0 -291 -110q-70 -86 -70 -305q0 -312 125 -402q79 -61 246 -61h418z" />
    <glyph glyph-name="D" unicode="D" horiz-adv-x="1468" 
d="M139 1366h580q212 0 340.5 -44t208.5 -144q61 -73 98 -210t37 -288q0 -200 -57 -363q-38 -113 -109 -182.5t-182 -103.5q-56 -18 -126.5 -24.5t-209.5 -6.5h-580v1366zM430 1122v-878h289q195 0 270 90q43 54 68.5 148.5t25.5 199.5q0 125 -34 227.5t-91 149.5
q-41 34 -96.5 48.5t-142.5 14.5h-289z" />
    <glyph glyph-name="E" unicode="E" horiz-adv-x="1253" 
d="M1163 1366v-244h-379q-148 0 -216.5 -21t-112.5 -79q-31 -42 -42 -81t-18 -140h768v-244h-768q15 -175 104 -244t298 -69h366v-244h-379q-219 0 -337.5 34t-200.5 120q-88 91 -134 229t-46 309q0 367 231 563q72 62 155 86.5t220 24.5h491z" />
    <glyph glyph-name="F" unicode="F" horiz-adv-x="1302" 
d="M1229 807v-244h-813v-563h-291v713q0 278 51 389q90 194 326 244q58 12 106.5 16t149.5 4h471v-244h-434q-187 0 -269 -35q-110 -52 -110 -206v-74h813z" />
    <glyph glyph-name="G" unicode="G" horiz-adv-x="1417" 
d="M639 811h672v-811h-611q-159 0 -251.5 23t-167.5 83q-105 82 -160 228.5t-55 343.5q0 194 55 340.5t158 230.5q147 117 434 117h598v-244h-563q-195 0 -279 -96.5t-84 -320.5q0 -127 26 -228t72 -151q79 -82 275 -82h262v323h-381v244z" />
    <glyph glyph-name="H" unicode="H" horiz-adv-x="1386" 
d="M1247 1366v-1366h-291v563h-526v-563h-291v1366h291v-559h526v559h291z" />
    <glyph glyph-name="I" unicode="I" horiz-adv-x="569" 
d="M139 0v1366h291v-1366h-291z" />
    <glyph glyph-name="J" unicode="J" horiz-adv-x="1091" 
d="M31 0v244h278q138 0 199 10t94 39q42 37 58 103t16 204v766h291v-766q9 -341 -134 -478t-493 -122h-309z" />
    <glyph glyph-name="K" unicode="K" horiz-adv-x="1349" 
d="M430 1366v-1366h-291v1366h291zM440 692l523 674h380l-569 -674l543 -692h-383z" />
    <glyph glyph-name="L" unicode="L" horiz-adv-x="1091" 
d="M125 1366h291v-766q5 -127 11 -176t16.5 -72t39.5 -49q40 -35 100.5 -47t198.5 -12h279v-244h-309q-140 0 -196.5 4.5t-111.5 18.5q-105 28 -179.5 96t-106.5 166q-33 101 -33 315v766z" />
    <glyph glyph-name="M" unicode="M" horiz-adv-x="1822" 
d="M561 1366l340 -1067l359 1067h423v-1366h-276v1026l-358 -1026h-299l-338 1026v-1026h-277v1366h426z" />
    <glyph glyph-name="N" unicode="N" horiz-adv-x="1470" 
d="M416 1001v-1001h-277v1366h371l545 -1018v1018h276v-1366h-356z" />
    <glyph glyph-name="O" unicode="O" horiz-adv-x="1480" 
d="M745 1376q177 0 318.5 -55.5t216.5 -155.5q63 -82 98 -211.5t35 -283.5q0 -335 -165.5 -506.5t-487.5 -171.5q-197 0 -347 62t-229 177q-118 167 -118 447q0 196 52.5 341t153.5 224q164 133 473 133zM737 1145q-97 0 -172 -35.5t-116 -101.5q-64 -101 -64 -322
q0 -240 86 -352.5t270 -112.5q183 0 268 112.5t85 354.5q0 236 -86 346.5t-271 110.5z" />
    <glyph glyph-name="P" unicode="P" horiz-adv-x="1404" 
d="M430 477v-477h-291v1366h682q180 0 263.5 -25t150.5 -100q123 -132 123 -319q0 -107 -40.5 -202t-111.5 -155q-60 -51 -125.5 -69.5t-183.5 -18.5h-467zM430 721h395q112 0 154 39q59 49 59 172q0 67 -26.5 114t-73.5 64q-34 12 -107 12h-401v-401z" />
    <glyph glyph-name="Q" unicode="Q" horiz-adv-x="1550" 
d="M1495 244v-244h-512q-261 0 -319 4q-178 13 -291.5 67t-188.5 160q-118 171 -118 447q0 196 52.5 341t153.5 224q78 64 199.5 98.5t267.5 34.5q182 0 324.5 -55t218.5 -156q58 -75 95.5 -207.5t37.5 -263.5q0 -263 -153 -450h233zM739 1147q-178 0 -265 -110.5
t-87 -336.5q0 -201 62 -319q78 -152 294 -152q182 0 266.5 113t84.5 356q0 198 -80 320q-86 129 -275 129z" />
    <glyph glyph-name="R" unicode="R" horiz-adv-x="1464" 
d="M430 518v-518h-291v1366h668q156 0 252.5 -18.5t157.5 -61.5q72 -49 111.5 -128t39.5 -173q0 -157 -64 -255t-196 -144q119 -32 179.5 -125t68.5 -254q7 -94 13 -131t20 -76h-326q-11 33 -16 74q-13 119 -13 121q-20 186 -98.5 254.5t-271.5 68.5h-234zM430 762h408
q112 0 160.5 44t48.5 144q0 61 -26.5 103t-74.5 59q-38 10 -108 10h-408v-360z" />
    <glyph glyph-name="S" unicode="S" horiz-adv-x="1423" 
d="M135 0v244h623q154 0 203 32q67 42 67 125q0 47 -23.5 86.5t-64.5 59.5q-43 24 -147 24h-252q-235 0 -342 91q-61 54 -95 132.5t-34 166.5q0 132 65 235.5t172 140.5q45 17 108 23t185 6h676v-244h-610q-100 -2 -126 -3.5t-57 -8.5q-43 -10 -67.5 -47.5t-24.5 -91.5
q0 -96 78 -133q31 -14 65 -18.5t107 -4.5h219q151 0 240 -26t149 -87q46 -46 74.5 -128.5t28.5 -170.5q0 -110 -47 -204t-127 -144q-50 -32 -126.5 -43.5t-230.5 -11.5h-686z" />
    <glyph glyph-name="T" unicode="T" horiz-adv-x="1198" 
d="M446 1122h-436v244h1178v-244h-451v-1122h-291v1122z" />
    <glyph glyph-name="U" unicode="U" horiz-adv-x="1439" 
d="M416 1366v-819q0 -99 17 -155.5t59 -94.5q40 -36 103.5 -57t131.5 -21q100 0 173 35t101 96q25 61 25 197v819h291v-805q0 -164 -35.5 -268.5t-112.5 -169.5q-161 -133 -448 -133q-324 0 -471 147q-71 72 -98 159.5t-27 244.5v825h291z" />
    <glyph glyph-name="V" unicode="V" horiz-adv-x="1472" 
d="M1468 1366l-598 -1366h-290l-576 1366h328l401 -1028l408 1028h327z" />
    <glyph glyph-name="W" unicode="W" horiz-adv-x="2166" 
d="M328 1366l307 -1028l285 1028h325l287 -1028l307 1028h299l-442 -1366h-330l-283 987l-284 -987h-330l-442 1366h301z" />
    <glyph glyph-name="X" unicode="X" horiz-adv-x="1304" 
d="M475 690l-448 676h356l268 -448l291 448h352l-463 -676l463 -690h-342l-301 469l-295 -469h-346z" />
    <glyph glyph-name="Y" unicode="Y" horiz-adv-x="1339" 
d="M512 598l-506 768h342l314 -532l329 532h344l-532 -778v-588h-291v598z" />
    <glyph glyph-name="Z" unicode="Z" horiz-adv-x="1339" 
d="M938 1122h-862v244h1188v-252l-832 -870h832v-244h-1188v238z" />
    <glyph glyph-name="bracketleft" unicode="[" horiz-adv-x="722" 
d="M653 1552v-219h-69q-63 0 -94 -4t-51 -22.5t-24.5 -46t-4.5 -84.5v-988q0 -57 4.5 -84.5t24.5 -46t51 -22.5t94 -4h69v-219h-190q-113 0 -166 12t-96 47q-43 37 -59.5 89t-16.5 151v1140q0 101 16.5 153t59.5 89q43 35 96 47t166 12h190z" />
    <glyph glyph-name="backslash" unicode="\" horiz-adv-x="1091" 
d="M922 -188l-1006 1740h256l1006 -1740h-256z" />
    <glyph glyph-name="bracketright" unicode="]" horiz-adv-x="722" 
d="M70 1552h190q113 0 166 -12t96 -47q43 -37 59.5 -89t16.5 -153v-1140q0 -99 -16.5 -151t-59.5 -89q-43 -35 -96 -47t-166 -12h-190v219h69q63 0 94 4t51 22.5t24.5 46t4.5 84.5v988q0 57 -4.5 84.5t-24.5 46t-51 22.5t-94 4h-69v219z" />
    <glyph glyph-name="asciicircum" unicode="^" 
d="M309 715h-280l307 659h352l307 -659h-280l-203 446z" />
    <glyph glyph-name="underscore" unicode="_" 
d="M0 -80h1024v-223h-1024v223z" />
    <glyph glyph-name="grave" unicode="`" 
d="M199 1382h241l189 -266h-176z" />
    <glyph glyph-name="a" unicode="a" horiz-adv-x="1218" 
d="M487 606h336q0 106 -42.5 142t-166.5 36h-462v213h462q123 0 171 -4.5t98 -19.5q66 -22 116.5 -77t75.5 -132q23 -73 23 -203v-561h-578q-160 0 -219.5 9.5t-105.5 43.5q-55 39 -85 102.5t-30 139.5q0 104 50 183.5t132 105.5q71 22 225 22zM823 393h-317q-65 0 -88 -6
q-27 -7 -43.5 -31t-16.5 -55q0 -47 34.5 -67.5t113.5 -20.5h317v180z" />
    <glyph glyph-name="b" unicode="b" horiz-adv-x="1222" 
d="M410 997h243q136 0 232 -37.5t162 -117.5q106 -124 106 -330q0 -147 -56.5 -259.5t-162.5 -178.5q-69 -43 -143 -58.5t-209 -15.5h-447v1366h275v-369zM410 784v-571h202q121 0 190.5 78t69.5 213q0 280 -260 280h-202z" />
    <glyph glyph-name="c" unicode="c" horiz-adv-x="1044" 
d="M967 997v-213h-328q-154 0 -222.5 -67t-68.5 -219q0 -166 105 -236q40 -28 87 -38.5t130 -10.5h297v-213h-375q-150 0 -238.5 31t-156.5 106q-129 144 -129 365q0 265 153 397q62 53 147.5 75.5t223.5 22.5h375z" />
    <glyph glyph-name="d" unicode="d" horiz-adv-x="1212" 
d="M801 997v369h274v-1366h-473q-148 0 -234 27.5t-159 99.5q-141 138 -141 379q0 265 180 405q112 86 295 86h258zM801 213v571h-199q-120 0 -188 -74t-68 -204q0 -136 68.5 -214.5t187.5 -78.5h199z" />
    <glyph glyph-name="e" unicode="e" horiz-adv-x="1040" 
d="M948 606v-213h-577q5 -57 20.5 -88.5t52.5 -56.5q29 -20 66 -27.5t102 -7.5h336v-213h-364q-119 0 -194 21t-142 73q-180 136 -180 418q0 130 52.5 242t141.5 172q106 71 301 71h385v-213h-364q-113 0 -158.5 -38t-54.5 -140h577z" />
    <glyph glyph-name="f" unicode="f" horiz-adv-x="778" 
d="M217 784h-180v213h180v60q0 162 69 235.5t220 73.5h242v-213h-140q-63 0 -89.5 -25.5t-26.5 -85.5v-45h256v-213h-256v-784h-275v784z" />
    <glyph glyph-name="g" unicode="g" horiz-adv-x="1226" 
d="M1092 997v-989q0 -79 -20.5 -148t-55.5 -114q-46 -56 -113.5 -78t-193.5 -22h-547v213h510q91 0 118 26.5t27 114.5h-252q-121 0 -199 25.5t-143 85.5q-149 140 -149 389q0 285 182 411q64 47 137.5 66.5t186.5 19.5h512zM817 784h-227q-236 0 -236 -286
q0 -140 63.5 -212.5t186.5 -72.5h213v571z" />
    <glyph glyph-name="h" unicode="h" horiz-adv-x="1222" 
d="M410 1366v-369h280q126 0 196.5 -19.5t119.5 -68.5q94 -91 94 -286v-623h-275v567q0 134 -37 175.5t-157 41.5h-221v-784h-275v1366h275z" />
    <glyph glyph-name="i" unicode="i" horiz-adv-x="544" 
d="M135 997h275v-997h-275v997zM135 1100v266h275v-266h-275z" />
    <glyph glyph-name="j" unicode="j" horiz-adv-x="610" 
d="M475 997v-917q0 -142 -29.5 -226.5t-95.5 -134.5q-46 -34 -120 -53.5t-158 -19.5h-121v209h69q116 0 152 45q17 20 23 52.5t6 106.5v938h274zM201 1108v258h274v-258h-274z" />
    <glyph glyph-name="k" unicode="k" horiz-adv-x="1114" 
d="M410 1366v-764l366 395h307l-389 -395h76q142 0 201 -90q51 -76 51 -291v-221h-274v233q0 92 -31.5 125t-120.5 33h-186v-391h-275v1366h275z" />
    <glyph glyph-name="l" unicode="l" horiz-adv-x="544" 
d="M410 0h-275v1366h275v-1366z" />
    <glyph glyph-name="m" unicode="m" horiz-adv-x="1683" 
d="M135 997h1008q138 0 210.5 -20t119.5 -72q90 -99 90 -270v-635h-275v592q0 74 -7 102.5t-30 50.5q-39 39 -127 39h-145v-784h-274v784h-295v-784h-275v997z" />
    <glyph glyph-name="n" unicode="n" horiz-adv-x="1183" 
d="M135 997h529q119 0 180 -16.5t114 -62.5q105 -99 105 -304v-614h-275v645q0 75 -33 107t-108 32h-237v-784h-275v997z" />
    <glyph glyph-name="o" unicode="o" horiz-adv-x="1191" 
d="M600 1012q278 0 408 -168q114 -143 114 -357q0 -232 -143 -366.5t-389 -134.5t-384 136t-138 380q0 235 143.5 372.5t388.5 137.5zM592 801q-244 0 -244 -307q0 -146 63.5 -221.5t186.5 -75.5q244 0 244 305q0 299 -250 299z" />
    <glyph glyph-name="p" unicode="p" horiz-adv-x="1208" 
d="M135 997h479q141 0 214 -17.5t135 -68.5q178 -137 178 -428q0 -220 -131 -354q-66 -68 -150.5 -98.5t-208.5 -30.5h-241v-375h-275v1372zM410 784v-571h168q282 0 282 291q0 135 -68 207.5t-194 72.5h-188z" />
    <glyph glyph-name="q" unicode="q" horiz-adv-x="1220" 
d="M1085 997v-1372h-274v375h-264q-228 0 -352 133q-127 139 -127 354q0 138 46 247t132 177q64 51 136 68.5t212 17.5h491zM811 784h-201q-127 0 -194.5 -73t-67.5 -211q0 -140 70 -213.5t203 -73.5h190v571z" />
    <glyph glyph-name="r" unicode="r" horiz-adv-x="958" 
d="M135 997h406q126 0 193 -16t114 -59q46 -41 64 -102t18 -175v-98h-264v53q0 106 -38 145t-139 39h-79v-784h-275v997z" />
    <glyph glyph-name="s" unicode="s" horiz-adv-x="1124" 
d="M1001 997v-213h-487q-93 0 -122.5 -17t-29.5 -71q0 -56 48 -84q25 -14 131 -14h161q164 0 254.5 -74.5t90.5 -210.5q0 -93 -46 -174t-116 -112q-58 -27 -223 -27h-568v213h488q83 0 129 4q32 4 49.5 25t17.5 55q0 67 -51 86q-22 12 -115 12h-168q-98 0 -152.5 13.5
t-98.5 48.5q-53 40 -83 107t-30 143q0 73 30.5 137.5t84.5 105.5q35 26 84.5 36.5t136.5 10.5h585z" />
    <glyph glyph-name="t" unicode="t" horiz-adv-x="788" 
d="M207 997v369h274v-369h254v-213h-254v-362q0 -76 4.5 -108t18.5 -52q34 -49 123 -49h108v-213h-198q-166 0 -242 76q-51 47 -69.5 111.5t-18.5 187.5v409h-174v213h174z" />
    <glyph glyph-name="u" unicode="u" horiz-adv-x="1196" 
d="M784 213v784h275v-997h-539q-119 0 -180.5 17t-114.5 63q-104 98 -104 303v614h274v-641q0 -67 34.5 -105t96.5 -38h258z" />
    <glyph glyph-name="v" unicode="v" horiz-adv-x="1148" 
d="M567 311l279 686h291l-430 -997h-295l-398 997h299z" />
    <glyph glyph-name="w" unicode="w" horiz-adv-x="1683" 
d="M705 213v784h274v-784h295v784h274v-997h-1007q-138 0 -210.5 20t-119.5 72q-90 99 -90 270v635h274v-591q0 -74 7 -103t30 -51q39 -39 127 -39h146z" />
    <glyph glyph-name="x" unicode="x" horiz-adv-x="1075" 
d="M383 494l-358 503h305l211 -295l204 295h322l-373 -503l373 -494h-322l-204 285l-211 -285h-322z" />
    <glyph glyph-name="y" unicode="y" horiz-adv-x="1175" 
d="M764 213v784h274v-977q0 -236 -159 -325q-88 -49 -269 -49h-489v213h489q68 0 103 14q25 9 35.5 29t13.5 61l2 37h-244q-117 0 -186 22.5t-123 79.5q-54 59 -72 126t-18 212v557h274v-530q0 -155 28 -204.5t116 -49.5h225z" />
    <glyph glyph-name="z" unicode="z" horiz-adv-x="1079" 
d="M639 784h-576v213h941v-206l-576 -578h576v-213h-941v207z" />
    <glyph glyph-name="braceleft" unicode="{" horiz-adv-x="778" 
d="M465 1137v-201q0 -103 -27 -158.5t-96 -95.5q68 -38 95.5 -95t27.5 -159v-201q0 -108 2.5 -129t19.5 -39q22 -28 101 -28h121v-219h-140q-142 0 -206 14.5t-111 58.5q-72 69 -72 224v294q0 91 -21.5 132t-76.5 53v188q55 12 76.5 53t21.5 132v294q0 176 96 244
q46 31 100.5 42t160.5 11h172v-219h-121q-82 0 -103 -30q-15 -19 -17.5 -40t-2.5 -126z" />
    <glyph glyph-name="bar" unicode="|" 
d="M352 1366h318v-1708h-318v1708z" />
    <glyph glyph-name="braceright" unicode="}" horiz-adv-x="778" 
d="M313 227v201q0 102 27.5 159t95.5 95q-69 40 -96 95.5t-27 158.5v201q0 105 -2.5 126t-17.5 40q-21 30 -103 30h-120v219h172q118 0 178.5 -15.5t105.5 -57.5q72 -69 72 -224v-294q0 -91 21.5 -132t76.5 -53v-188q-55 -12 -76.5 -53t-21.5 -132v-294q0 -177 -96 -242
q-47 -33 -105 -44t-188 -11h-139v219h120q79 0 101 28q17 18 19.5 39t2.5 129z" />
    <glyph glyph-name="asciitilde" unicode="~" horiz-adv-x="1366" 
d="M344 1126l-154 129q113 283 308 283q64 0 229 -68q81 -35 106 -43t50 -8q41 0 74.5 28.5t70.5 94.5l154 -127q-63 -152 -136 -215t-186 -63q-42 0 -79.5 11.5t-147.5 57.5q-101 45 -150 45q-39 0 -71.5 -29t-67.5 -96z" />
    <glyph glyph-name="registered" unicode="&#xa0;" horiz-adv-x="1574" 
d="M799 1386q188 0 349 -95t255 -257.5t94 -351.5q0 -114 -35.5 -221t-101 -193.5t-152.5 -151.5t-194.5 -100.5t-222.5 -35.5q-144 0 -275.5 55.5t-227 149.5t-152 224t-56.5 273q0 194 95.5 356t260.5 255t363 93zM784 1253q-151 0 -280 -77t-204 -208t-75 -284
q0 -155 76 -286.5t205.5 -208t281.5 -76.5q153 0 283 76.5t205.5 207.5t75.5 285q0 157 -75.5 288.5t-206 207t-286.5 75.5zM639 590v-291h-197v778h359q190 0 262 -45q98 -63 98 -174q0 -172 -147 -223q133 -42 139 -213q6 -60 9.5 -77t15.5 -46h-222q-3 13 -6 20l-8 41
l-6 54q-10 101 -58 138.5t-167 37.5h-72zM639 741h180q69 0 98 23t29 76q0 49 -29 69.5t-98 20.5h-180v-189z" />
    <glyph glyph-name="exclamdown" unicode="&#xa1;" horiz-adv-x="561" 
d="M426 0h-291v1030h291v-1030zM426 1135h-291v231h291v-231z" />
    <glyph glyph-name="cent" unicode="&#xa2;" horiz-adv-x="1046" 
d="M750 920v-570h217v-213h-217v-200h-156v200q-140 0 -223.5 24.5t-147.5 84.5q-155 146 -155 391q0 158 59 275t166 171q100 50 301 50v200h156v-200h217v-213h-217zM594 352v566q-132 -10 -189 -76t-57 -207q0 -128 63 -200.5t183 -82.5z" />
    <glyph glyph-name="sterling" unicode="&#xa3;" horiz-adv-x="1314" 
d="M1171 1366v-242h-385q-103 0 -143.5 -7.5t-69.5 -31.5q-63 -54 -63 -217v-108h451v-170h-451v-348h750v-242h-1151v242h110v348h-110v170h110v26q0 197 26.5 296t96.5 165q102 94 248 111q53 8 196 8h385z" />
    <glyph glyph-name="currency" unicode="&#xa4;" horiz-adv-x="1329" 
d="M950 1149l162 162l162 -162l-160 -160q78 -132 78 -293q0 -150 -72 -282l162 -162l-162 -164l-162 162q-129 -66 -294 -66q-164 0 -293 66l-162 -162l-162 162l162 164q-72 129 -72 282q0 163 76 289l-166 164l164 164l166 -166q126 63 287 63q158 0 286 -61zM662 1001
q-244 0 -244 -303q0 -305 248 -305q245 0 245 305q0 303 -249 303z" />
    <glyph glyph-name="yen" unicode="&#xa5;" horiz-adv-x="1288" 
d="M444 662l-438 704h340l287 -535l301 535h346l-459 -704h275v-164h-322v-109h281v-164h-281v-225h-291v225h-280v164h280v109h-321v164h282z" />
    <glyph glyph-name="logicalnot" unicode="&#xa6;" 
d="M645 0v319h-577v277h886v-596h-309z" />
    <glyph glyph-name="section" unicode="&#xa7;" horiz-adv-x="1277" 
d="M709 174h-226q-121 0 -191 17t-116 57q-47 41 -73.5 109.5t-26.5 150.5q0 169 106 256q-106 89 -106 260q0 103 48.5 187.5t127.5 119.5q44 22 101 28.5t190 6.5h604v-213h-547q-132 0 -180 -29q-60 -42 -60 -108q0 -142 209 -142h222q120 0 183 -17t118 -64
q54 -47 83 -116.5t29 -146.5q0 -72 -23 -130.5t-75 -116.5q98 -91 98 -242q0 -117 -58.5 -209.5t-152.5 -126.5q-43 -14 -90 -18t-164 -4h-596v213h537q90 2 112.5 3.5t47.5 8.5q38 9 60 43t22 84q0 41 -17.5 73.5t-48.5 45.5q-44 20 -147 20zM707 662h-109q-128 0 -172 -21
q-66 -34 -66 -117q0 -72 49 -104.5t158 -32.5h140q87 0 129 10q84 21 84 125q0 77 -48 108.5t-165 31.5z" />
    <glyph glyph-name="dieresis" unicode="&#xa8;" 
d="M811 1352v-226h-219v226h219zM430 1352v-226h-219v226h219z" />
    <glyph glyph-name="threequarters" unicode="&#xa9;" horiz-adv-x="2267" 
d="M125 547v155h377q70 0 99.5 20.5t29.5 68.5q0 55 -39 77q-26 13 -90 13h-295v157h295q73 0 101 18.5t28 65.5q0 51 -37 74q-21 14 -92 14h-377v156h407q87 0 125 -5t70 -22q55 -26 87 -79t32 -119q0 -118 -109 -180q109 -71 109 -195q0 -118 -96 -176
q-44 -26 -92.5 -34.5t-147.5 -8.5h-385zM1411 1374h197l-766 -1382h-197zM1264 139v180l489 500h250v-524h113v-156h-113v-139h-197v139h-542zM1491 295h315v321z" />
    <glyph glyph-name="ordfeminine" unicode="&#xaa;" horiz-adv-x="808" 
d="M328 918h204q0 53 -25.5 71.5t-98.5 18.5h-299v139h299q117 0 164.5 -13t86.5 -55q34 -35 47 -77.5t13 -116.5v-338h-371q-101 0 -139 5.5t-68 25.5q-78 53 -78 149q0 64 32.5 112.5t88.5 65.5q47 13 144 13zM532 778h-192q-41 0 -53 -2q-33 -10 -33 -45q0 -25 19.5 -35
t66.5 -10h192v92z" />
    <glyph glyph-name="guillemotleft" unicode="&#xab;" horiz-adv-x="821" 
d="M358 836v-244l-143 -100l143 -97v-243l-272 215v247zM719 836v-244l-144 -100l144 -97v-243l-273 215v247z" />
    <glyph glyph-name="nbspace" unicode="&#xac;" horiz-adv-x="512" 
 />
    <glyph glyph-name="middot" unicode="&#xad;" horiz-adv-x="458" 
d="M352 815v-266h-248v266h248z" />
    <glyph glyph-name="copyright" unicode="&#xae;" horiz-adv-x="1574" 
d="M799 1386q187 0 348 -95t255.5 -257.5t94.5 -351.5q0 -114 -35.5 -221t-101 -193.5t-152.5 -151.5t-194.5 -100.5t-222.5 -35.5q-144 0 -275.5 55.5t-227 149.5t-152 224t-56.5 273q0 194 95.5 356t260.5 255t363 93zM784 1253q-151 0 -280 -77t-204 -208t-75 -284
q0 -155 76 -286.5t205.5 -208t281.5 -76.5q153 0 283 76.5t205.5 207.5t75.5 285q0 157 -75.5 288.5t-206 207t-286.5 75.5zM1112 444v-149h-301q-110 0 -173 16.5t-112 59.5q-116 98 -116 311q0 132 49.5 225t140.5 131q86 35 219 35h293v-149h-272q-117 0 -167 -52
t-50 -174q0 -141 49.5 -197.5t173.5 -56.5h266z" />
    <glyph glyph-name="macron" unicode="&#xaf;" 
d="M838 1296v-137h-650v137h650z" />
    <glyph glyph-name="sfthyphen" unicode="&#xb0;" horiz-adv-x="477" 
d="M477 651v-245h-477v245h477z" />
    <glyph glyph-name="trademark" unicode="&#xb1;" horiz-adv-x="1839" 
d="M268 1219h-262v147h719v-147h-268v-619h-189v619zM1079 1366l201 -573l209 573h266v-766h-180v535l-203 -535h-188l-191 533v-533h-180v766h266z" />
    <glyph glyph-name="twosuperior" unicode="&#xb2;" horiz-adv-x="970" 
d="M301 702h561v-155h-758v221q0 142 76 209q32 32 77 43.5t132 11.5h139q73 0 107.5 21t34.5 65q0 92 -142 92h-409v156h448q175 0 240 -57q78 -65 78 -185q0 -77 -28.5 -133t-80.5 -82q-69 -32 -196 -32h-121q-95 0 -126.5 -21.5t-31.5 -87.5v-66z" />
    <glyph glyph-name="threesuperior" unicode="&#xb3;" horiz-adv-x="970" 
d="M125 547v155h377q70 0 99.5 20.5t29.5 68.5q0 55 -39 77q-26 13 -90 13h-295v157h295q73 0 101 18.5t28 65.5q0 51 -37 74q-21 14 -92 14h-377v156h407q87 0 125 -5t70 -22q55 -26 87 -79t32 -119q0 -118 -109 -180q109 -71 109 -195q0 -118 -96 -176
q-44 -26 -92.5 -34.5t-147.5 -8.5h-385z" />
    <glyph glyph-name="acute" unicode="&#xb4;" 
d="M825 1382l-254 -266h-176l189 266h241z" />
    <glyph glyph-name="brokenbar" unicode="&#xb5;" 
d="M352 1366h318v-723h-318v723zM352 313h318v-655h-318v655z" />
    <glyph glyph-name="paragraph" unicode="&#xb6;" horiz-adv-x="1316" 
d="M508 -317v794q-166 3 -252 45q-92 46 -148.5 156t-56.5 244q0 122 55.5 227.5t147.5 159.5q97 57 307 57h739v-240h-122v-1443h-242v1443h-338q-104 0 -145 -20q-40 -22 -62 -68t-22 -108q0 -109 51.5 -159t163.5 -50h166v-1038h-242z" />
    <glyph glyph-name="periodcentered" unicode="&#xb7;" horiz-adv-x="458" 
d="M352 815v-266h-248v266h248z" />
    <glyph glyph-name="cedilla" unicode="&#xb8;" 
d="M412 0h104v-92h21q89 0 129 -27q24 -17 38.5 -50.5t14.5 -72.5q0 -49 -22 -84t-60 -49q-37 -12 -115 -12h-157v100h141q32 0 46.5 13.5t14.5 42.5q0 35 -13.5 46t-55.5 11h-86v174z" />
    <glyph glyph-name="onesuperior" unicode="&#xb9;" horiz-adv-x="970" 
d="M584 547h-197v819h197v-819z" />
    <glyph glyph-name="ordmasculine" unicode="&#xba;" horiz-adv-x="792" 
d="M399 1157q157 0 246.5 -83.5t89.5 -231.5q0 -140 -92 -221.5t-250 -81.5t-247 82.5t-89 228.5q0 141 92.5 224t249.5 83zM395 1020q-147 0 -147 -174q0 -170 149 -170q148 0 148 174q0 170 -150 170z" />
    <glyph glyph-name="guillemotright" unicode="&#xbb;" horiz-adv-x="821" 
d="M102 836l273 -222v-247l-273 -215v243l144 97l-144 100v244zM463 836l272 -222v-247l-272 -215v243l143 97l-143 100v244z" />
    <glyph glyph-name="onehalf" unicode="&#xbc;" horiz-adv-x="2267" 
d="M666 547h-197v819h197v-819zM1411 1374h197l-766 -1382h-197zM1624 156h561v-156h-758v221q0 142 76 209q32 32 77 43.5t132 11.5h139q73 0 107.5 21t34.5 65q0 93 -142 93h-409v155h448q175 0 240 -57q78 -65 78 -184q0 -77 -28.5 -133.5t-80.5 -82.5q-69 -32 -196 -32
h-121q-95 0 -126.5 -21.5t-31.5 -87.5v-65z" />
    <glyph glyph-name="plusminus" unicode="&#xbd;" horiz-adv-x="1144" 
d="M76 942h383v365h231v-365h381v-223h-381v-365h-231v365h-383v223zM76 281h995v-224h-995v224z" />
    <glyph glyph-name="onequarter" unicode="&#xbe;" horiz-adv-x="2267" 
d="M666 547h-197v819h197v-819zM1411 1374h197l-766 -1382h-197zM1276 139v180l489 500h252v-524h113v-156h-113v-139h-196v139h-545zM1505 295h316v321z" />
    <glyph glyph-name="questiondown" unicode="&#xbf;" horiz-adv-x="1394" 
d="M1274 0h-715q-156 0 -221 13.5t-127 58.5q-143 105 -143 336q0 111 38.5 196.5t110.5 132.5q90 64 299 64h180q152 0 199 35q47 38 47 127v69h291v-96q0 -210 -111 -301q-50 -40 -129.5 -58t-208.5 -18h-166q-132 0 -178 -31q-53 -38 -53 -133q0 -114 88 -141
q27 -9 53.5 -10.5t130.5 -1.5h615v-242zM942 1135v231h291v-231h-291z" />
    <glyph glyph-name="Agrave" unicode="&#xc0;" horiz-adv-x="1480" 
d="M8 0l565 1366h334l566 -1366h-340l-132 317h-520l-131 -317h-342zM741 1038l-194 -477h389zM414 1720h250l186 -252h-178z" />
    <glyph glyph-name="Aacute" unicode="&#xc1;" horiz-adv-x="1480" 
d="M8 0l565 1366h334l566 -1366h-340l-132 317h-520l-131 -317h-342zM741 1038l-194 -477h389zM1071 1720l-256 -252h-180l188 252h248z" />
    <glyph glyph-name="Acircumflex" unicode="&#xc2;" horiz-adv-x="1480" 
d="M8 0l565 1366h334l566 -1366h-340l-132 317h-520l-131 -317h-342zM741 1038l-194 -477h389zM739 1614l-127 -146h-206l221 252h225l223 -252h-207z" />
    <glyph glyph-name="Atilde" unicode="&#xc3;" horiz-adv-x="1480" 
d="M8 0l565 1366h334l566 -1366h-340l-132 317h-520l-131 -317h-342zM741 1038l-194 -477h389zM952 1696h127q-12 -113 -58.5 -167t-131.5 -54q-43 0 -87.5 12t-144.5 51q-30 10 -53 10q-62 0 -74 -69h-127q30 221 193 221q50 0 172 -43q60 -21 76 -25t37 -4q57 0 71 68z
" />
    <glyph glyph-name="Adieresis" unicode="&#xc4;" horiz-adv-x="1480" 
d="M8 0l565 1366h334l566 -1366h-340l-132 317h-520l-131 -317h-342zM741 1038l-194 -477h389zM1051 1700v-225h-222v225h222zM651 1700v-225h-221v225h221z" />
    <glyph glyph-name="Aring" unicode="&#xc5;" horiz-adv-x="1480" 
d="M8 0l565 1366h334l566 -1366h-340l-132 317h-520l-131 -317h-342zM741 1038l-194 -477h389zM743 1839q78 0 135.5 -58t57.5 -136q0 -81 -57.5 -139t-137.5 -58q-82 0 -139 57.5t-57 139.5t57.5 138t140.5 56zM739 1722q-32 0 -54.5 -22.5t-22.5 -54.5q0 -34 22.5 -57
t54.5 -23q34 0 57 23t23 57q0 32 -23 54.5t-57 22.5z" />
    <glyph glyph-name="AE" unicode="&#xc6;" horiz-adv-x="2111" 
d="M1133 0l-134 317h-518l-131 -317h-342l565 1366h334l117 -281q31 69 81.5 129t102.5 89q112 63 322 63h491v-244h-379q-148 0 -216.5 -21t-112.5 -79q-31 -42 -42 -81t-18 -140h768v-244h-768q15 -175 104 -244t298 -69h366v-244h-888zM741 1038l-194 -477h389z" />
    <glyph glyph-name="Ccedilla" unicode="&#xc7;" horiz-adv-x="1243" 
d="M788 0v-84h23q104 0 151.5 -39t47.5 -125q0 -55 -23 -93.5t-65 -53.5q-51 -15 -125 -15h-174v111h145q46 0 65 13t19 46q0 35 -18 48.5t-64 13.5h-96v178q-153 0 -252 31.5t-176 103.5q-180 174 -180 545q0 231 78.5 394.5t222.5 230.5q59 28 152.5 44.5t193.5 16.5h463
v-244h-428q-203 0 -291 -110q-70 -86 -70 -305q0 -312 125 -402q79 -61 246 -61h418v-244h-388z" />
    <glyph glyph-name="Egrave" unicode="&#xc8;" horiz-adv-x="1253" 
d="M1163 1366v-244h-379q-148 0 -216.5 -21t-112.5 -79q-31 -42 -42 -81t-18 -140h768v-244h-768q15 -175 104 -244t298 -69h366v-244h-379q-219 0 -337.5 34t-200.5 120q-88 91 -134 229t-46 309q0 367 231 563q72 62 155 86.5t220 24.5h491zM471 1720h250l186 -252h-178z
" />
    <glyph glyph-name="Eacute" unicode="&#xc9;" horiz-adv-x="1253" 
d="M1163 1366v-244h-379q-148 0 -216.5 -21t-112.5 -79q-31 -42 -42 -81t-18 -140h768v-244h-768q15 -175 104 -244t298 -69h366v-244h-379q-219 0 -337.5 34t-200.5 120q-88 91 -134 229t-46 309q0 367 231 563q72 62 155 86.5t220 24.5h491zM1057 1720l-256 -252h-180
l188 252h248z" />
    <glyph glyph-name="Ecircumflex" unicode="&#xca;" horiz-adv-x="1253" 
d="M1163 1366v-244h-379q-148 0 -216.5 -21t-112.5 -79q-31 -42 -42 -81t-18 -140h768v-244h-768q15 -175 104 -244t298 -69h366v-244h-379q-219 0 -337.5 34t-200.5 120q-88 91 -134 229t-46 309q0 367 231 563q72 62 155 86.5t220 24.5h491zM750 1614l-127 -146h-207
l221 252h225l223 -252h-206z" />
    <glyph glyph-name="Edieresis" unicode="&#xcb;" horiz-adv-x="1253" 
d="M1163 1366v-244h-379q-148 0 -216.5 -21t-112.5 -79q-31 -42 -42 -81t-18 -140h768v-244h-768q15 -175 104 -244t298 -69h366v-244h-379q-219 0 -337.5 34t-200.5 120q-88 91 -134 229t-46 309q0 367 231 563q72 62 155 86.5t220 24.5h491zM1065 1700v-225h-221v225h221z
M666 1700v-225h-222v225h222z" />
    <glyph glyph-name="Igrave" unicode="&#xcc;" horiz-adv-x="569" 
d="M139 0v1366h291v-1366h-291zM-4 1720h235l158 -252h-176z" />
    <glyph glyph-name="Iacute" unicode="&#xcd;" horiz-adv-x="569" 
d="M139 0v1366h291v-1366h-291zM573 1720l-217 -252h-176l158 252h235z" />
    <glyph glyph-name="Icircumflex" unicode="&#xce;" horiz-adv-x="569" 
d="M139 0v1366h291v-1366h-291zM285 1614l-90 -146h-191l168 252h225l166 -252h-188z" />
    <glyph glyph-name="Idieresis" unicode="&#xcf;" horiz-adv-x="569" 
d="M141 0v1366h291v-1366h-291zM535 1700v-225h-207v225h207zM244 1700v-225h-207v225h207z" />
    <glyph glyph-name="Eth" unicode="&#xd0;" horiz-adv-x="1468" 
d="M139 575h-131v226h131v565h580q212 0 340.5 -44t208.5 -144q61 -73 98 -210t37 -288q0 -200 -57 -363q-38 -113 -109 -182.5t-182 -103.5q-56 -18 -126 -24.5t-210 -6.5h-580v575zM430 575v-331h289q195 0 270 90q43 52 68.5 147t25.5 201q0 124 -34 225.5t-91 151.5
q-41 34 -96.5 48.5t-142.5 14.5h-289v-321h305v-226h-305z" />
    <glyph glyph-name="Ntilde" unicode="&#xd1;" horiz-adv-x="1470" 
d="M416 1001v-1001h-277v1366h371l545 -1018v1018h276v-1366h-356zM961 1696h126q-12 -113 -58.5 -167t-131.5 -54q-43 0 -87 12t-144 51q-30 10 -54 10q-61 0 -73 -69h-127q30 221 192 221q50 0 172 -43q60 -21 76 -25t37 -4q58 0 72 68z" />
    <glyph glyph-name="Ograve" unicode="&#xd2;" horiz-adv-x="1480" 
d="M745 1376q177 0 318.5 -55.5t216.5 -155.5q63 -82 98 -211.5t35 -283.5q0 -335 -165.5 -506.5t-487.5 -171.5q-197 0 -347 62t-229 177q-118 167 -118 447q0 196 52.5 341t153.5 224q164 133 473 133zM737 1145q-97 0 -172 -35.5t-116 -101.5q-64 -101 -64 -322
q0 -240 86 -352.5t270 -112.5q183 0 268 112.5t85 354.5q0 236 -86 346.5t-271 110.5zM453 1720h249l187 -252h-178z" />
    <glyph glyph-name="Oacute" unicode="&#xd3;" horiz-adv-x="1480" 
d="M745 1376q177 0 318.5 -55.5t216.5 -155.5q63 -82 98 -211.5t35 -283.5q0 -335 -165.5 -506.5t-487.5 -171.5q-197 0 -347 62t-229 177q-118 167 -118 447q0 196 52.5 341t153.5 224q164 133 473 133zM737 1145q-97 0 -172 -35.5t-116 -101.5q-64 -101 -64 -322
q0 -240 86 -352.5t270 -112.5q183 0 268 112.5t85 354.5q0 236 -86 346.5t-271 110.5zM1047 1720l-256 -252h-181l189 252h248z" />
    <glyph glyph-name="Ocircumflex" unicode="&#xd4;" horiz-adv-x="1480" 
d="M745 1376q177 0 318.5 -55.5t216.5 -155.5q63 -82 98 -211.5t35 -283.5q0 -335 -165.5 -506.5t-487.5 -171.5q-197 0 -347 62t-229 177q-118 167 -118 447q0 196 52.5 341t153.5 224q164 133 473 133zM737 1145q-97 0 -172 -35.5t-116 -101.5q-64 -101 -64 -322
q0 -240 86 -352.5t270 -112.5q183 0 268 112.5t85 354.5q0 236 -86 346.5t-271 110.5zM739 1614l-127 -146h-206l221 252h225l223 -252h-207z" />
    <glyph glyph-name="Otilde" unicode="&#xd5;" horiz-adv-x="1480" 
d="M745 1376q177 0 318.5 -55.5t216.5 -155.5q63 -82 98 -211.5t35 -283.5q0 -335 -165.5 -506.5t-487.5 -171.5q-197 0 -347 62t-229 177q-118 167 -118 447q0 196 52.5 341t153.5 224q164 133 473 133zM737 1145q-97 0 -172 -35.5t-116 -101.5q-64 -101 -64 -322
q0 -240 86 -352.5t270 -112.5q183 0 268 112.5t85 354.5q0 236 -86 346.5t-271 110.5zM965 1696h127q-12 -112 -59 -166.5t-132 -54.5q-43 0 -87 12t-144 51q-30 10 -54 10q-61 0 -73 -69h-127q30 221 192 221q50 0 172 -43q60 -21 76 -25t37 -4q58 0 72 68z" />
    <glyph glyph-name="Odieresis" unicode="&#xd6;" horiz-adv-x="1480" 
d="M745 1376q177 0 318.5 -55.5t216.5 -155.5q63 -82 98 -211.5t35 -283.5q0 -335 -165.5 -506.5t-487.5 -171.5q-197 0 -347 62t-229 177q-118 167 -118 447q0 196 52.5 341t153.5 224q164 133 473 133zM737 1145q-97 0 -172 -35.5t-116 -101.5q-64 -101 -64 -322
q0 -240 86 -352.5t270 -112.5q183 0 268 112.5t85 354.5q0 236 -86 346.5t-271 110.5zM1051 1700v-225h-222v225h222zM651 1700v-225h-221v225h221z" />
    <glyph glyph-name="minus" unicode="&#xd7;" horiz-adv-x="1144" 
d="M76 809h995v-223h-995v223z" />
    <glyph glyph-name="Oslash" unicode="&#xd8;" horiz-adv-x="1480" 
d="M373 72l-64 -80h-243l153 192q-153 184 -153 492q0 197 52.5 342.5t153.5 224.5q78 64 199.5 98.5t267.5 34.5q209 0 371 -76l59 74h244l-149 -188q149 -178 149 -516q0 -184 -54.5 -326.5t-156.5 -224.5q-75 -60 -190.5 -93.5t-249.5 -33.5q-212 0 -389 80zM1057 944
l-512 -676q81 -47 200 -47q179 0 264 114t85 353q0 149 -37 256zM424 422l512 676q-80 47 -199 47q-97 0 -172 -35.5t-116 -101.5q-64 -106 -64 -320q0 -161 39 -266z" />
    <glyph glyph-name="Ugrave" unicode="&#xd9;" horiz-adv-x="1439" 
d="M416 1366v-819q0 -99 17 -155.5t59 -94.5q40 -36 103.5 -57t131.5 -21q100 0 173 35t101 96q25 61 25 197v819h291v-805q0 -164 -35.5 -268.5t-112.5 -169.5q-161 -133 -448 -133q-324 0 -471 147q-71 72 -98 159.5t-27 244.5v825h291zM420 1720h250l186 -252h-178z" />
    <glyph glyph-name="Uacute" unicode="&#xda;" horiz-adv-x="1439" 
d="M416 1366v-819q0 -99 17 -155.5t59 -94.5q40 -36 103.5 -57t131.5 -21q100 0 173 35t101 96q25 61 25 197v819h291v-805q0 -164 -35.5 -268.5t-112.5 -169.5q-161 -133 -448 -133q-324 0 -471 147q-71 72 -98 159.5t-27 244.5v825h291zM1028 1720l-256 -252h-180l188 252
h248z" />
    <glyph glyph-name="Ucircumflex" unicode="&#xdb;" horiz-adv-x="1439" 
d="M416 1366v-819q0 -99 17 -155.5t59 -94.5q40 -36 103.5 -57t131.5 -21q100 0 173 35t101 96q25 61 25 197v819h291v-805q0 -164 -35.5 -268.5t-112.5 -169.5q-161 -133 -448 -133q-324 0 -471 147q-71 72 -98 159.5t-27 244.5v825h291zM721 1614l-127 -146h-207l221 252
h226l223 -252h-207z" />
    <glyph glyph-name="Udieresis" unicode="&#xdc;" horiz-adv-x="1439" 
d="M416 1366v-819q0 -99 17 -155.5t59 -94.5q40 -36 103.5 -57t131.5 -21q100 0 173 35t101 96q25 61 25 197v819h291v-805q0 -164 -35.5 -268.5t-112.5 -169.5q-161 -133 -448 -133q-324 0 -471 147q-71 72 -98 159.5t-27 244.5v825h291zM1032 1700v-225h-221v225h221z
M633 1700v-225h-221v225h221z" />
    <glyph glyph-name="Yacute" unicode="&#xdd;" horiz-adv-x="1339" 
d="M512 598l-506 768h342l314 -532l329 532h344l-532 -778v-588h-291v598zM983 1720l-256 -252h-180l188 252h248z" />
    <glyph glyph-name="Thorn" unicode="&#xde;" horiz-adv-x="1404" 
d="M139 0v1366h291v-219h399q177 0 259.5 -25t148.5 -98q121 -137 121 -322q0 -107 -40.5 -201.5t-111.5 -154.5q-60 -51 -125.5 -69.5t-183.5 -18.5h-467v-258h-291zM430 502h399q105 0 150 39q59 49 59 172q0 68 -26.5 114.5t-75.5 63.5q-35 12 -107 12h-399v-401z" />
    <glyph glyph-name="germandbls" unicode="&#xdf;" horiz-adv-x="1234" 
d="M410 725v-725h-275v967q0 116 31.5 190.5t101.5 126.5q120 90 316 90q178 0 289.5 -81t111.5 -210q0 -126 -106 -211q132 -17 208 -123.5t76 -273.5q0 -127 -43 -227.5t-123 -159.5q-99 -72 -262 -86q-33 -2 -162 -2h-96v213h141q91 0 133 12t74 49q60 69 60 191
q0 160 -94 223q-35 22 -78.5 29.5t-134.5 7.5h-168zM410 938h206q85 0 117.5 20.5t32.5 75.5q0 127 -152 127q-123 0 -163.5 -35t-40.5 -141v-47z" />
    <glyph glyph-name="agrave" unicode="&#xe0;" horiz-adv-x="1218" 
d="M487 606h336q0 106 -42.5 142t-166.5 36h-462v213h462q123 0 171 -4.5t98 -19.5q66 -22 116.5 -77t75.5 -132q23 -73 23 -203v-561h-578q-160 0 -219.5 9.5t-105.5 43.5q-55 39 -85 102.5t-30 139.5q0 104 50 183.5t132 105.5q71 22 225 22zM823 393h-317q-65 0 -88 -6
q-27 -7 -43.5 -31t-16.5 -55q0 -47 34.5 -67.5t113.5 -20.5h317v180zM334 1382h241l189 -266h-176z" />
    <glyph glyph-name="aacute" unicode="&#xe1;" horiz-adv-x="1218" 
d="M487 606h336q0 106 -42.5 142t-166.5 36h-462v213h462q123 0 171 -4.5t98 -19.5q66 -22 116.5 -77t75.5 -132q23 -73 23 -203v-561h-578q-160 0 -219.5 9.5t-105.5 43.5q-55 39 -85 102.5t-30 139.5q0 104 50 183.5t132 105.5q71 22 225 22zM823 393h-317q-65 0 -88 -6
q-27 -7 -43.5 -31t-16.5 -55q0 -47 34.5 -67.5t113.5 -20.5h317v180zM913 1382l-254 -266h-176l189 266h241z" />
    <glyph glyph-name="acircumflex" unicode="&#xe2;" horiz-adv-x="1218" 
d="M487 606h336q0 106 -42.5 142t-166.5 36h-462v213h462q123 0 171 -4.5t98 -19.5q66 -22 116.5 -77t75.5 -132q23 -73 23 -203v-561h-578q-160 0 -219.5 9.5t-105.5 43.5q-55 39 -85 102.5t-30 139.5q0 104 50 183.5t132 105.5q71 22 225 22zM823 393h-317q-65 0 -88 -6
q-27 -7 -43.5 -31t-16.5 -55q0 -47 34.5 -67.5t113.5 -20.5h317v180zM616 1278l-129 -162h-198l217 266h221l217 -266h-196z" />
    <glyph glyph-name="atilde" unicode="&#xe3;" horiz-adv-x="1218" 
d="M487 606h336q0 106 -42.5 142t-166.5 36h-462v213h462q123 0 171 -4.5t98 -19.5q66 -22 116.5 -77t75.5 -132q23 -73 23 -203v-561h-578q-160 0 -219.5 9.5t-105.5 43.5q-55 39 -85 102.5t-30 139.5q0 104 50 183.5t132 105.5q71 22 225 22zM823 393h-317q-65 0 -88 -6
q-27 -7 -43.5 -31t-16.5 -55q0 -47 34.5 -67.5t113.5 -20.5h317v180zM827 1348h123q-24 -222 -188 -222q-66 0 -164 41q-77 33 -113 33q-57 0 -73 -70h-123q30 222 192 222q32 0 64 -8.5t98 -34.5q80 -29 113 -29q57 0 71 68z" />
    <glyph glyph-name="adieresis" unicode="&#xe4;" horiz-adv-x="1218" 
d="M487 606h336q0 106 -42.5 142t-166.5 36h-462v213h462q123 0 171 -4.5t98 -19.5q66 -22 116.5 -77t75.5 -132q23 -73 23 -203v-561h-578q-160 0 -219.5 9.5t-105.5 43.5q-55 39 -85 102.5t-30 139.5q0 104 50 183.5t132 105.5q71 22 225 22zM823 393h-317q-65 0 -88 -6
q-27 -7 -43.5 -31t-16.5 -55q0 -47 34.5 -67.5t113.5 -20.5h317v180zM918 1352v-226h-220v226h220zM537 1352v-226h-220v226h220z" />
    <glyph glyph-name="aring" unicode="&#xe5;" horiz-adv-x="1218" 
d="M487 606h336q0 106 -42.5 142t-166.5 36h-462v213h462q123 0 171 -4.5t98 -19.5q66 -22 116.5 -77t75.5 -132q23 -73 23 -203v-561h-578q-160 0 -219.5 9.5t-105.5 43.5q-55 39 -85 102.5t-30 139.5q0 104 50 183.5t132 105.5q71 22 225 22zM823 393h-317q-65 0 -88 -6
q-27 -7 -43.5 -31t-16.5 -55q0 -47 34.5 -67.5t113.5 -20.5h317v180zM618 1485q78 0 135.5 -58.5t57.5 -136.5q0 -81 -57.5 -138.5t-137.5 -57.5q-82 0 -139 57t-57 139t57.5 138.5t140.5 56.5zM614 1368q-32 0 -54.5 -23t-22.5 -55q0 -34 22.5 -57t54.5 -23q34 0 57 23
t23 57q0 32 -23 55t-57 23z" />
    <glyph glyph-name="ae" unicode="&#xe6;" horiz-adv-x="1767" 
d="M152 997h491q158 0 219.5 -14t116.5 -65q63 44 132.5 61.5t182.5 17.5h385v-213h-366q-112 0 -157 -37.5t-56 -140.5h579v-213h-579q4 -56 21.5 -88t54.5 -57q27 -20 63.5 -27.5t103.5 -7.5h336v-213h-1159q-160 0 -219.5 9.5t-105.5 43.5q-55 39 -85 102.5t-30 139.5
q0 104 50 183.5t132 105.5q71 22 225 22h336q0 106 -42.5 142t-166.5 36h-462v213zM823 393h-317q-65 0 -88 -6q-27 -7 -43.5 -31t-16.5 -55q0 -47 34.5 -67.5t113.5 -20.5h317v180z" />
    <glyph glyph-name="ccedilla" unicode="&#xe7;" horiz-adv-x="1044" 
d="M672 0v-92h20q88 0 129 -27q24 -17 38.5 -50.5t14.5 -72.5q0 -49 -21.5 -84t-59.5 -49q-37 -12 -115 -12h-160v100h144q32 0 46.5 13.5t14.5 42.5q0 35 -14 46t-56 11h-86v174q-132 3 -206.5 26.5t-137.5 82.5q-155 146 -155 393q0 265 153 397q61 54 146.5 76t226.5 22
h373v-213h-328q-155 0 -223 -67t-68 -219q0 -166 105 -236q40 -28 87 -38.5t130 -10.5h297v-213h-295z" />
    <glyph glyph-name="egrave" unicode="&#xe8;" horiz-adv-x="1040" 
d="M948 606v-213h-577q5 -57 20.5 -88.5t52.5 -56.5q29 -20 66 -27.5t102 -7.5h336v-213h-364q-119 0 -194 21t-142 73q-180 136 -180 418q0 130 52.5 242t141.5 172q106 71 301 71h385v-213h-364q-113 0 -158.5 -38t-54.5 -140h577zM328 1382h241l189 -266h-176z" />
    <glyph glyph-name="eacute" unicode="&#xe9;" horiz-adv-x="1040" 
d="M948 606v-213h-577q5 -57 20.5 -88.5t52.5 -56.5q29 -20 66 -27.5t102 -7.5h336v-213h-364q-119 0 -194 21t-142 73q-180 136 -180 418q0 130 52.5 242t141.5 172q106 71 301 71h385v-213h-364q-113 0 -158.5 -38t-54.5 -140h577zM905 1382l-254 -266h-176l189 266h241z
" />
    <glyph glyph-name="ecircumflex" unicode="&#xea;" horiz-adv-x="1040" 
d="M948 606v-213h-577q5 -57 20.5 -88.5t52.5 -56.5q29 -20 66 -27.5t102 -7.5h336v-213h-364q-119 0 -194 21t-142 73q-180 136 -180 418q0 130 52.5 242t141.5 172q106 71 301 71h385v-213h-364q-113 0 -158.5 -38t-54.5 -140h577zM604 1278l-129 -162h-199l218 266h221
l217 -266h-197z" />
    <glyph glyph-name="edieresis" unicode="&#xeb;" horiz-adv-x="1040" 
d="M948 606v-213h-577q5 -57 20.5 -88.5t52.5 -56.5q29 -20 66 -27.5t102 -7.5h336v-213h-364q-119 0 -194 21t-142 73q-180 136 -180 418q0 130 52.5 242t141.5 172q106 71 301 71h385v-213h-364q-113 0 -158.5 -38t-54.5 -140h577zM905 1352v-226h-219v226h219zM524 1352
v-226h-219v226h219z" />
    <glyph glyph-name="igrave" unicode="&#xec;" horiz-adv-x="544" 
d="M135 997h275v-997h-275v997zM-6 1382h229l160 -266h-176z" />
    <glyph glyph-name="iacute" unicode="&#xed;" horiz-adv-x="544" 
d="M135 997h275v-997h-275v997zM555 1382l-215 -266h-174l160 266h229z" />
    <glyph glyph-name="icircumflex" unicode="&#xee;" horiz-adv-x="544" 
d="M135 997h275v-997h-275v997zM272 1284l-90 -168h-182l164 266h219l164 -266h-182z" />
    <glyph glyph-name="idieresis" unicode="&#xef;" horiz-adv-x="544" 
d="M135 997h275v-997h-275v997zM518 1352v-226h-205v226h205zM231 1352v-226h-204v226h204z" />
    <glyph glyph-name="eth" unicode="&#xf0;" horiz-adv-x="1196" 
d="M477 1128l-186 -124l-74 114l113 78q-39 16 -129 45l100 162q115 -18 244 -64l194 131l78 -114l-125 -84q167 -105 254 -213q87 -107 133.5 -242t46.5 -280q0 -270 -161 -431q-120 -120 -371 -120q-249 0 -387.5 136t-138.5 380q0 226 139 368t362 142q44 0 64.5 -3.5
t48.5 -15.5q-59 72 -205 135zM592 803q-244 0 -244 -309q0 -146 63.5 -221.5t186.5 -75.5q244 0 244 305q0 301 -250 301z" />
    <glyph glyph-name="ntilde" unicode="&#xf1;" horiz-adv-x="1183" 
d="M135 997h529q119 0 180 -16.5t114 -62.5q105 -99 105 -304v-614h-275v645q0 75 -33 107t-108 32h-237v-784h-275v997zM780 1348h123q-24 -222 -188 -222q-66 0 -164 41q-77 33 -113 33q-57 0 -73 -70h-123q30 222 192 222q32 0 64 -8.5t98 -34.5q80 -29 113 -29
q57 0 71 68z" />
    <glyph glyph-name="ograve" unicode="&#xf2;" horiz-adv-x="1191" 
d="M600 1012q278 0 408 -168q114 -143 114 -357q0 -232 -143 -366.5t-389 -134.5t-384 136t-138 380q0 235 143.5 372.5t388.5 137.5zM592 801q-244 0 -244 -307q0 -146 63.5 -221.5t186.5 -75.5q244 0 244 305q0 299 -250 299zM311 1382h242l188 -266h-176z" />
    <glyph glyph-name="oacute" unicode="&#xf3;" horiz-adv-x="1191" 
d="M600 1012q278 0 408 -168q114 -143 114 -357q0 -232 -143 -366.5t-389 -134.5t-384 136t-138 380q0 235 143.5 372.5t388.5 137.5zM592 801q-244 0 -244 -307q0 -146 63.5 -221.5t186.5 -75.5q244 0 244 305q0 299 -250 299zM893 1382l-254 -266h-176l188 266h242z" />
    <glyph glyph-name="ocircumflex" unicode="&#xf4;" horiz-adv-x="1191" 
d="M600 1012q278 0 408 -168q114 -143 114 -357q0 -232 -143 -366.5t-389 -134.5t-384 136t-138 380q0 235 143.5 372.5t388.5 137.5zM592 801q-244 0 -244 -307q0 -146 63.5 -221.5t186.5 -75.5q244 0 244 305q0 299 -250 299zM596 1278l-129 -162h-199l217 266h222
l217 -266h-197z" />
    <glyph glyph-name="otilde" unicode="&#xf5;" horiz-adv-x="1191" 
d="M600 1012q278 0 408 -168q114 -143 114 -357q0 -232 -143 -366.5t-389 -134.5t-384 136t-138 380q0 235 143.5 372.5t388.5 137.5zM592 801q-244 0 -244 -307q0 -146 63.5 -221.5t186.5 -75.5q244 0 244 305q0 299 -250 299zM817 1348h123q-24 -222 -188 -222
q-66 0 -164 41q-77 33 -113 33q-58 0 -74 -70h-122q30 222 192 222q32 0 64 -8.5t98 -34.5q80 -29 112 -29q58 0 72 68z" />
    <glyph glyph-name="odieresis" unicode="&#xf6;" horiz-adv-x="1191" 
d="M600 1012q278 0 408 -168q114 -143 114 -357q0 -232 -143 -366.5t-389 -134.5t-384 136t-138 380q0 235 143.5 372.5t388.5 137.5zM592 801q-244 0 -244 -307q0 -146 63.5 -221.5t186.5 -75.5q244 0 244 305q0 299 -250 299zM895 1352v-226h-219v226h219zM514 1352v-226
h-219v226h219z" />
    <glyph glyph-name="multiply" unicode="&#xf7;" horiz-adv-x="1144" 
d="M102 385l312 311l-312 312l158 159l311 -313l312 313l159 -159l-311 -312l311 -311l-159 -158l-312 312l-311 -312z" />
    <glyph glyph-name="oslash" unicode="&#xf8;" horiz-adv-x="1191" 
d="M887 948l55 64h209l-145 -164q62 -77 90 -163.5t28 -197.5q0 -233 -142 -367t-390 -134q-159 0 -285 63l-57 -63h-209l141 159q-114 132 -114 359q0 232 143.5 370t382.5 138q168 0 293 -64zM369 346l352 430q-53 27 -129 27q-244 0 -244 -307q0 -82 21 -150zM821 653
l-350 -430q55 -28 127 -28q246 0 246 305q0 85 -23 153z" />
    <glyph glyph-name="ugrave" unicode="&#xf9;" horiz-adv-x="1196" 
d="M784 213v784h275v-997h-539q-119 0 -180.5 17t-114.5 63q-104 98 -104 303v614h274v-641q0 -67 34.5 -105t96.5 -38h258zM293 1382h242l188 -266h-176z" />
    <glyph glyph-name="uacute" unicode="&#xfa;" horiz-adv-x="1196" 
d="M784 213v784h275v-997h-539q-119 0 -180.5 17t-114.5 63q-104 98 -104 303v614h274v-641q0 -67 34.5 -105t96.5 -38h258zM895 1382l-254 -266h-176l188 266h242z" />
    <glyph glyph-name="ucircumflex" unicode="&#xfb;" horiz-adv-x="1196" 
d="M784 213v784h275v-997h-539q-119 0 -180.5 17t-114.5 63q-104 98 -104 303v614h274v-641q0 -67 34.5 -105t96.5 -38h258zM590 1278l-129 -162h-199l217 266h221l218 -266h-197z" />
    <glyph glyph-name="udieresis" unicode="&#xfc;" horiz-adv-x="1196" 
d="M784 213v784h275v-997h-539q-119 0 -180.5 17t-114.5 63q-104 98 -104 303v614h274v-641q0 -67 34.5 -105t96.5 -38h258zM891 1352v-226h-219v226h219zM510 1352v-226h-219v226h219z" />
    <glyph glyph-name="yacute" unicode="&#xfd;" horiz-adv-x="1175" 
d="M764 213v784h274v-977q0 -236 -159 -325q-88 -49 -269 -49h-489v213h489q68 0 103 14q25 9 35.5 29t13.5 61l2 37h-244q-117 0 -186 22.5t-123 79.5q-54 59 -72 126t-18 212v557h274v-530q0 -155 28 -204.5t116 -49.5h225zM887 1382l-254 -266h-176l188 266h242z" />
    <glyph glyph-name="thorn" unicode="&#xfe;" horiz-adv-x="1208" 
d="M410 997h204q141 0 214 -17.5t135 -68.5q178 -137 178 -428q0 -220 -131 -354q-66 -68 -150.5 -98.5t-208.5 -30.5h-241v-375h-275v1741h275v-369zM410 784v-571h168q282 0 282 291q0 135 -68 207.5t-194 72.5h-188z" />
    <glyph glyph-name="ydieresis" unicode="&#xff;" horiz-adv-x="1175" 
d="M764 213v784h274v-977q0 -236 -159 -325q-88 -49 -269 -49h-489v213h489q68 0 103 14q25 9 35.5 29t13.5 61l2 37h-244q-117 0 -186 22.5t-123 79.5q-54 59 -72 126t-18 212v557h274v-530q0 -155 28 -204.5t116 -49.5h225zM881 1352v-226h-219v226h219zM500 1352v-226
h-219v226h219z" />
    <glyph glyph-name="dotlessi" unicode="&#x131;" horiz-adv-x="544" 
d="M135 997h275v-997h-275v997z" />
    <glyph glyph-name="Lslash" unicode="&#x141;" horiz-adv-x="1099" 
d="M424 1366v-459l254 131v-227l-254 -133v-78q5 -129 10.5 -176.5t16.5 -71t41 -49.5q40 -35 100.5 -47t198.5 -12h278v-244h-307q-205 -3 -301.5 20t-184.5 97q-84 81 -112 172.5t-31 290.5l-127 -62v227l127 64v557h291z" />
    <glyph glyph-name="lslash" unicode="&#x142;" horiz-adv-x="544" 
d="M410 1366v-522l127 86v-205l-127 -86v-639h-275v520l-129 -88v205l129 88v641h275z" />
    <glyph glyph-name="OE" unicode="&#x152;" horiz-adv-x="2277" 
d="M2187 0h-379q-229 0 -347 37t-204 135q-75 -86 -204 -133t-293 -47q-197 0 -347 62t-229 177q-118 167 -118 445q0 197 52.5 342.5t153.5 224.5q79 64 200.5 98.5t266.5 34.5q166 0 304.5 -48.5t213.5 -133.5q83 95 181 133.5t258 38.5h491v-244h-379q-148 0 -216.5 -21
t-112.5 -79q-31 -42 -42 -81t-18 -140h768v-244h-768q15 -175 104 -244t298 -69h366v-244zM737 1145q-96 0 -171 -36t-117 -101q-64 -101 -64 -324q0 -238 86 -350.5t270 -112.5q183 0 268 112.5t85 354.5q0 236 -86 346.5t-271 110.5z" />
    <glyph glyph-name="oe" unicode="&#x153;" horiz-adv-x="1837" 
d="M1745 0h-365q-140 0 -221.5 29t-163.5 108q-142 -151 -405 -151q-246 0 -384 136t-138 380q0 232 142.5 371t381.5 139q270 0 397 -148q68 74 150.5 103.5t220.5 29.5h385v-213h-365q-113 0 -158.5 -38t-54.5 -140h578v-213h-578q4 -57 20.5 -88.5t53.5 -56.5
q29 -20 66 -27.5t102 -7.5h336v-213zM592 803q-244 0 -244 -309q0 -297 248 -297q246 0 246 305q0 301 -250 301z" />
    <glyph glyph-name="Scaron" unicode="&#x160;" horiz-adv-x="1423" 
d="M135 0v244h623q154 0 203 32q67 42 67 125q0 47 -23.5 86.5t-64.5 59.5q-43 24 -147 24h-252q-235 0 -342 91q-61 54 -95 132.5t-34 166.5q0 132 65 235.5t172 140.5q45 17 108 23t185 6h676v-244h-610q-100 -2 -126 -3.5t-57 -8.5q-43 -10 -67.5 -47.5t-24.5 -91.5
q0 -96 78 -133q31 -14 65 -18.5t107 -4.5h219q151 0 240 -26t149 -87q46 -46 74.5 -128.5t28.5 -170.5q0 -110 -47 -204t-127 -144q-50 -32 -126.5 -43.5t-230.5 -11.5h-686zM752 1575l127 145h208l-223 -252h-225l-221 252h207z" />
    <glyph glyph-name="scaron" unicode="&#x161;" horiz-adv-x="1124" 
d="M1001 997v-213h-487q-93 0 -122.5 -17t-29.5 -71q0 -56 48 -84q25 -14 131 -14h161q164 0 254.5 -74.5t90.5 -210.5q0 -93 -46 -174t-116 -112q-58 -27 -223 -27h-568v213h488q83 0 129 4q32 4 49.5 25t17.5 55q0 67 -51 86q-22 12 -115 12h-168q-98 0 -152.5 13.5
t-98.5 48.5q-53 40 -83 107t-30 143q0 73 30.5 137.5t84.5 105.5q35 26 84.5 36.5t136.5 10.5h585zM584 1221l129 161h198l-217 -266h-221l-217 266h197z" />
    <glyph glyph-name="Ydieresis" unicode="&#x178;" horiz-adv-x="1339" 
d="M512 598l-506 768h342l314 -532l329 532h344l-532 -778v-588h-291v598zM981 1700v-225h-221v225h221zM582 1700v-225h-222v225h222z" />
    <glyph glyph-name="Zcaron" unicode="&#x17d;" horiz-adv-x="1339" 
d="M938 1122h-862v244h1188v-252l-832 -870h832v-244h-1188v238zM668 1575l127 145h209l-224 -252h-225l-221 252h207z" />
    <glyph glyph-name="zcaron" unicode="&#x17e;" horiz-adv-x="1079" 
d="M639 784h-576v213h941v-206l-576 -578h576v-213h-941v207zM535 1221l129 161h198l-217 -266h-221l-217 266h196z" />
    <glyph glyph-name="florin" unicode="&#x192;" horiz-adv-x="1036" 
d="M367 647h-181l35 213h180l31 197q24 152 92 223q83 86 246 86h242l-35 -213h-137q-64 0 -95 -25.5t-40 -85.5l-29 -182h256l-35 -213h-256l-96 -612q-28 -174 -106 -248t-234 -74h-242l33 213h139q86 0 113 41q13 20 28 105z" />
    <glyph glyph-name="circumflex" unicode="&#x2c6;" 
d="M512 1278l-129 -162h-199l217 266h222l217 -266h-197z" />
    <glyph glyph-name="caron" unicode="&#x2c7;" 
d="M512 1221l129 161h199l-217 -266h-222l-217 266h197z" />
    <glyph glyph-name="breve" unicode="&#x2d8;" 
d="M211 1382h151q27 -114 150 -114t147 114h152q-10 -129 -88.5 -198.5t-210.5 -69.5q-134 0 -213 70.5t-88 197.5z" />
    <glyph glyph-name="dotaccent" unicode="&#x2d9;" 
d="M623 1352v-226h-220v226h220z" />
    <glyph glyph-name="ring" unicode="&#x2da;" 
d="M514 1485q78 0 135.5 -58.5t57.5 -136.5q0 -81 -57.5 -138.5t-137.5 -57.5q-82 0 -139.5 57t-57.5 139t58 138.5t141 56.5zM510 1368q-32 0 -55 -23t-23 -55q0 -34 23 -57t55 -23q34 0 57 23t23 57q0 32 -23 55t-57 23z" />
    <glyph glyph-name="ogonek" unicode="&#x2db;" 
d="M831 0h152q-123 -64 -123 -152q0 -35 23 -55t63 -20q41 0 92 22v-117q-71 -26 -139 -26q-192 0 -192 153q0 119 124 195z" />
    <glyph glyph-name="tilde" unicode="&#x2dc;" 
d="M719 1348h123q-24 -222 -189 -222q-66 0 -164 41q-77 33 -112 33q-58 0 -74 -70h-123q15 110 64 166t129 56q32 0 64 -8.5t98 -34.5q80 -29 112 -29q58 0 72 68z" />
    <glyph glyph-name="hungarumlaut" unicode="&#x2dd;" 
d="M618 1382l-231 -266h-149l170 266h210zM907 1382l-233 -266h-150l170 266h213z" />
    <glyph glyph-name="endash" unicode="&#x2013;" horiz-adv-x="1474" 
d="M1200 651v-205h-928v205h928z" />
    <glyph glyph-name="emdash" unicode="&#x2014;" horiz-adv-x="1427" 
d="M1427 651v-205h-1427v205h1427z" />
    <glyph glyph-name="quoteleft" unicode="&#x2018;" horiz-adv-x="479" 
d="M104 819v238l158 309h125l-125 -281h90v-266h-248z" />
    <glyph glyph-name="quoteright" unicode="&#x2019;" horiz-adv-x="479" 
d="M373 1366v-238l-158 -309h-125l125 281h-90v266h248z" />
    <glyph glyph-name="quotesinglbase" unicode="&#x201a;" horiz-adv-x="479" 
d="M373 266v-237l-158 -310h-125l125 281h-90v266h248z" />
    <glyph glyph-name="quotedblleft" unicode="&#x201c;" horiz-adv-x="876" 
d="M104 819v238l158 309h125l-125 -281h90v-266h-248zM504 819v238l158 309h124l-124 -281h90v-266h-248z" />
    <glyph glyph-name="quotedblright" unicode="&#x201d;" horiz-adv-x="876" 
d="M373 1366v-238l-158 -309h-125l125 281h-90v266h248zM772 1366v-238l-158 -309h-125l125 281h-90v266h248z" />
    <glyph glyph-name="quotedblbase" unicode="&#x201e;" horiz-adv-x="876" 
d="M373 266v-237l-158 -310h-125l125 281h-90v266h248zM772 266v-237l-158 -310h-125l125 281h-90v266h248z" />
    <glyph glyph-name="dagger" unicode="&#x2020;" horiz-adv-x="1112" 
d="M692 -317h-274v1101h-350v213h350v369h274v-369h352v-213h-352v-1101z" />
    <glyph glyph-name="daggerdbl" unicode="&#x2021;" horiz-adv-x="1112" 
d="M692 528h352v-213h-352v-632h-274v632h-350v213h350v256h-350v213h350v369h274v-369h352v-213h-352v-256z" />
    <glyph glyph-name="bullet" unicode="&#x2022;" horiz-adv-x="1366" 
d="M690 979q114 0 196.5 -83.5t82.5 -199.5q0 -118 -83 -201t-200 -83t-201 82.5t-84 199.5q0 120 83.5 202.5t205.5 82.5z" />
    <glyph glyph-name="ellipsis" unicode="&#x2026;" horiz-adv-x="1376" 
d="M352 266v-266h-248v266h248zM811 266v-266h-248v266h248zM1270 266v-266h-248v266h248z" />
    <glyph glyph-name="perthousand" unicode="&#x2030;" horiz-adv-x="2617" 
d="M444 1372q363 0 363 -346q0 -344 -346 -344q-192 0 -286.5 85.5t-94.5 258.5q0 178 88 262t276 84zM436 1225q-75 0 -115 -49.5t-40 -141.5q0 -107 40.5 -156t129.5 -49q80 0 117.5 49.5t37.5 153.5q0 193 -170 193zM1087 1366h175l-551 -1366h-174zM1364 682
q362 0 362 -346q0 -344 -348 -344q-192 0 -286.5 85.5t-94.5 258.5q0 178 89 262t278 84zM1354 535q-76 0 -116 -49.5t-40 -143.5q0 -106 41 -154.5t131 -48.5q80 0 118 49.5t38 153.5q0 193 -172 193zM2173 682q362 0 362 -346q0 -344 -348 -344q-192 0 -286.5 85.5
t-94.5 258.5q0 178 89 262t278 84zM2163 535q-76 0 -116 -49.5t-40 -143.5q0 -106 41 -154.5t131 -48.5q80 0 118 49.5t38 153.5q0 193 -172 193z" />
    <glyph glyph-name="guilsinglleft" unicode="&#x2039;" horiz-adv-x="460" 
d="M358 836v-244l-143 -100l143 -97v-243l-272 215v247z" />
    <glyph glyph-name="guilsinglright" unicode="&#x203a;" horiz-adv-x="460" 
d="M102 836l273 -222v-247l-273 -215v243l144 97l-144 100v244z" />
    <glyph glyph-name="fraction" unicode="&#x2044;" horiz-adv-x="325" 
d="M442 1374h197l-766 -1382h-197z" />
    <glyph glyph-name="divide" unicode="&#x2122;" horiz-adv-x="1144" 
d="M575 1194q60 0 103 -43.5t43 -103.5q0 -61 -43.5 -104.5t-104.5 -43.5t-104 43t-43 105t43 104.5t106 42.5zM575 494q60 0 103 -44t43 -104q0 -61 -43 -104t-105 -43q-61 0 -104 42.5t-43 104.5t43 105t106 43zM76 809h995v-223h-995v223z" />
    <glyph glyph-name="degree" unicode="&#x2212;" horiz-adv-x="788" 
d="M397 1374q127 0 218.5 -90.5t91.5 -216.5q0 -127 -92.5 -218t-221.5 -91t-221 91t-92 218q0 129 92 218t225 89zM391 1221q-63 0 -107 -45t-44 -107q0 -63 44 -107t107 -44q62 0 107 44t45 107t-44.5 107.5t-107.5 44.5z" />
    <glyph glyph-name="fi" unicode="&#xfb01;" horiz-adv-x="1255" 
d="M1120 997v-997h-274v784h-354v-784h-275v784h-180v213h180v60q0 162 69 235.5t220 73.5h201v-213h-99q-63 0 -89.5 -25.5t-26.5 -85.5v-45h628zM846 1100v266h274v-266h-274z" />
    <glyph glyph-name="fl" unicode="&#xfb02;" horiz-adv-x="1255" 
d="M707 1366v-213h-99q-63 0 -89.5 -25.5t-26.5 -85.5v-45h215v-213h-215v-784h-275v784h-180v213h180v60q0 162 69 235.5t220 73.5h201zM1120 0h-274v1366h274v-1366z" />
    <glyph glyph-name="mu" horiz-adv-x="1208" 
d="M410 6v-381h-275v1372h275v-647q0 -63 35.5 -100t95.5 -37h258v784h274v-997h-538q-92 0 -125 6z" />
    </font>
</defs>
</svg>
